<?xml version="1.0" standalone="no"?>
<!DOCTYPE svg PUBLIC "-//W3C//DTD SVG 20010904//EN"
 "http://www.w3.org/TR/2001/REC-SVG-20010904/DTD/svg10.dtd">
<svg version="1.0" xmlns="http://www.w3.org/2000/svg"
 width="391.000000pt" height="149.000000pt" viewBox="0 0 391.000000 149.000000"
 preserveAspectRatio="xMidYMid meet">

<g transform="translate(0.000000,149.000000) scale(0.100000,-0.100000)"
fill="#000000" stroke="none">
<path d="M657 1184 c-33 -18 -68 -72 -93 -143 -16 -44 -22 -51 -39 -46 -11 3
-54 8 -96 11 -63 6 -83 3 -121 -14 -72 -32 -77 -53 -50 -206 9 -49 31 -76 62
-76 9 0 27 -11 39 -24 l23 -24 -48 -58 c-114 -141 -110 -250 12 -284 41 -12
107 -7 195 13 6 1 22 -29 36 -66 16 -42 42 -86 68 -115 39 -43 46 -47 90 -47
41 0 51 4 81 38 19 20 40 37 48 37 7 0 25 9 40 21 29 23 35 68 12 92 -21 21
-6 73 20 70 154 -20 209 -14 254 23 61 51 51 132 -29 231 l-49 61 21 20 c12
12 38 46 56 77 62 101 41 195 -45 211 -18 3 -40 15 -50 25 -25 27 -78 25 -101
-4 -10 -13 -34 -27 -53 -30 l-35 -7 -25 67 c-17 46 -40 83 -71 115 -39 42 -51
48 -85 48 -21 -1 -51 -8 -67 -16z m113 -74 c27 -29 70 -124 70 -153 0 -7 -19
-20 -42 -28 -40 -15 -44 -14 -112 13 -39 16 -72 31 -74 33 -8 8 29 99 53 131
33 44 67 45 105 4z m-306 -170 c32 -5 61 -11 63 -13 2 -3 0 -39 -6 -82 -9 -78
-12 -82 -69 -122 -21 -14 -24 -14 -42 2 -12 11 -20 31 -20 51 0 33 -36 74 -66
74 -16 0 -29 43 -21 65 6 13 53 32 87 34 8 1 41 -3 74 -9z m684 -22 c30 -30
-6 -128 -66 -182 -21 -18 -22 -18 -84 31 -55 43 -64 55 -70 93 -4 24 -5 46 -2
49 6 7 69 4 115 -4 26 -5 39 -3 48 9 16 19 42 21 59 4z m-489 -30 c24 -9 23
-10 -25 -37 -27 -16 -50 -28 -52 -26 -1 1 0 21 4 44 7 45 6 44 73 19z m201
-14 c0 -8 -5 -12 -10 -9 -6 4 -8 11 -5 16 9 14 15 11 15 -7z m-37 -65 l54 -32
6 -71 c2 -39 2 -89 -2 -111 -5 -35 -13 -43 -63 -73 l-56 -33 -54 26 c-29 15
-72 39 -95 54 l-43 26 0 71 0 72 48 30 c60 38 124 71 139 72 6 0 36 -14 66
-31z m167 -113 l29 -23 -35 -34 -34 -33 0 57 c0 31 3 57 6 57 3 0 19 -11 34
-24z m-480 -32 c0 -22 -2 -25 -15 -14 -12 10 -13 16 -4 26 16 20 19 18 19 -12z
m651 -165 c11 -34 10 -42 -6 -59 -25 -27 -75 -35 -152 -22 -36 6 -67 13 -70
15 -2 3 0 25 4 49 7 38 17 52 68 96 l60 51 42 -45 c24 -25 48 -63 54 -85z
m-646 31 c3 -19 9 -56 14 -82 l8 -48 -36 -10 c-20 -5 -63 -10 -95 -10 -62 0
-96 17 -96 49 1 31 39 100 80 145 l42 46 39 -28 c29 -20 40 -36 44 -62z m120
-47 l48 -26 -38 -19 c-20 -11 -41 -16 -45 -11 -8 9 -23 83 -17 83 3 0 26 -12
52 -27z m232 -30 c-3 -3 -11 -2 -17 2 -9 6 -9 10 1 16 14 8 27 -7 16 -18z
m-53 -49 c34 -12 46 -20 42 -31 -3 -8 -6 -21 -6 -28 0 -8 -12 -25 -26 -39 -18
-16 -27 -35 -28 -58 -1 -38 -13 -60 -40 -75 -41 -23 -84 22 -124 128 l-21 56
72 31 c40 17 75 31 78 31 3 1 27 -6 53 -15z"/>
<path d="M707 769 c-38 -10 -58 -28 -74 -67 -29 -70 23 -142 102 -142 71 0
115 58 101 134 -11 56 -70 91 -129 75z m61 -71 c7 -7 12 -21 12 -33 0 -12 -5
-26 -12 -33 -7 -7 -21 -12 -33 -12 -40 0 -61 50 -33 78 7 7 21 12 33 12 12 0
26 -5 33 -12z"/>
<path d="M1250 1150 c0 -5 9 -10 19 -10 11 0 27 -7 35 -16 14 -13 16 -55 16
-299 0 -244 -2 -286 -16 -299 -8 -9 -24 -16 -35 -16 -10 0 -19 -4 -19 -10 0
-6 87 -10 240 -10 l240 0 0 96 c0 72 -3 95 -12 92 -7 -3 -14 -15 -16 -29 -5
-46 -32 -104 -54 -118 -14 -9 -59 -17 -114 -19 -126 -6 -124 -8 -124 169 l0
139 48 0 c59 0 87 -25 97 -87 13 -84 25 -41 25 93 0 104 -3 135 -12 132 -7 -3
-16 -21 -19 -41 -9 -56 -33 -77 -91 -77 l-48 0 0 134 c0 171 -2 169 126 164
111 -4 128 -15 144 -94 6 -30 16 -54 21 -54 5 0 9 38 9 85 l0 85 -230 0 c-147
0 -230 -4 -230 -10z"/>
<path d="M1820 1153 c0 -5 15 -15 33 -23 l32 -15 3 -289 c2 -306 1 -316 -44
-316 -13 0 -24 -5 -24 -11 0 -8 52 -10 173 -7 161 3 176 5 227 29 111 53 170
146 178 279 12 212 -77 328 -269 350 -100 12 -309 13 -309 3z m372 -45 c82
-45 112 -119 112 -278 1 -127 -15 -195 -56 -245 -43 -52 -98 -75 -180 -75 -56
0 -69 3 -78 19 -6 12 -10 126 -10 300 0 332 -5 317 102 308 44 -4 84 -14 110
-29z"/>
<path d="M2711 1138 c-229 -599 -230 -602 -261 -618 -39 -21 -19 -30 65 -30
50 0 85 4 85 10 0 6 -11 10 -23 10 -28 0 -57 29 -56 56 0 10 13 53 28 94 l27
75 115 3 115 3 32 -91 c39 -107 39 -134 0 -138 -16 -2 -28 -8 -28 -13 0 -5 49
-9 110 -9 67 0 110 4 110 10 0 6 -5 10 -12 10 -29 0 -54 51 -165 341 -65 170
-121 309 -126 309 -4 0 -11 -10 -16 -22z m38 -246 l49 -132 -104 0 c-57 0
-104 2 -104 4 0 3 55 150 89 240 7 16 14 27 16 24 3 -2 27 -64 54 -136z"/>
<path d="M3040 1150 c0 -5 11 -10 24 -10 52 0 56 -21 56 -310 0 -290 -4 -313
-53 -318 -15 -2 -27 -8 -27 -13 0 -5 41 -9 90 -9 53 0 90 4 90 10 0 6 -11 10
-23 10 -13 0 -31 8 -41 18 -15 17 -16 48 -14 288 l3 268 114 -297 c62 -164
117 -299 121 -302 7 -4 33 63 176 453 l49 133 3 -267 c2 -283 1 -294 -44 -294
-13 0 -24 -4 -24 -10 0 -6 47 -10 120 -10 73 0 120 4 120 10 0 6 -10 10 -22
10 -53 1 -53 -2 -56 301 -3 308 0 329 53 329 14 0 25 5 25 10 0 6 -34 10 -82
10 l-83 0 -99 -271 c-54 -148 -102 -266 -106 -262 -4 4 -51 126 -105 271 l-98
262 -83 0 c-49 0 -84 -4 -84 -10z"/>
<path d="M1303 453 c9 -2 23 -2 30 0 6 3 -1 5 -18 5 -16 0 -22 -2 -12 -5z"/>
<path d="M1357 449 c-42 -24 -62 -132 -31 -163 18 -18 76 -21 106 -5 42 23 64
132 32 163 -18 18 -80 21 -107 5z m63 -61 c0 -43 -12 -68 -31 -68 -13 0 -19 7
-19 23 0 42 12 67 31 67 13 0 19 -7 19 -22z"/>
<path d="M1628 453 c48 -5 47 -3 31 -103 -11 -63 -14 -69 -38 -73 -14 -2 -3
-5 25 -6 55 -1 64 6 64 52 1 18 5 14 21 -15 14 -28 26 -38 44 -38 26 0 29 5
44 94 16 87 15 96 -13 96 -25 0 -36 -16 -36 -53 -1 -18 -5 -15 -20 15 l-20 36
-72 -1 c-43 0 -55 -2 -30 -4z"/>
<path d="M1948 453 c12 -2 32 -2 45 0 12 2 2 4 -23 4 -25 0 -35 -2 -22 -4z"/>
<path d="M2020 445 c0 -11 -13 -15 -52 -16 -52 -2 -46 -4 40 -15 33 -4 42 -9
42 -25 0 -15 -8 -19 -42 -21 l-43 -1 38 -4 c32 -4 37 -8 37 -29 0 -21 -5 -24
-37 -26 -37 -1 -37 -1 -5 -5 19 -3 32 -10 32 -19 0 -9 11 -14 30 -14 23 0 30
4 30 20 0 10 5 42 11 70 8 38 15 50 29 50 16 0 30 18 30 41 0 5 -31 9 -70 9
-56 0 -70 -3 -70 -15z"/>
<path d="M2303 453 c9 -2 23 -2 30 0 6 3 -1 5 -18 5 -16 0 -22 -2 -12 -5z"/>
<path d="M2350 443 c-13 -9 -42 -17 -64 -16 l-41 0 38 -4 c35 -4 37 -6 30 -31
-5 -15 -8 -44 -8 -64 1 -32 -2 -38 -25 -41 -19 -4 -17 -5 10 -6 19 -1 53 -4
75 -7 32 -4 46 -1 67 16 26 20 48 72 48 113 0 49 -81 74 -130 40z m64 -70 c-9
-49 -11 -53 -35 -53 -18 0 -19 4 -13 38 9 48 11 52 35 52 18 0 19 -4 13 -37z"/>
<path d="M2598 453 c12 -2 32 -2 45 0 12 2 2 4 -23 4 -25 0 -35 -2 -22 -4z"/>
<path d="M2659 385 l-12 -75 -36 -2 -36 -1 33 -4 c20 -3 32 -10 32 -19 0 -12
12 -14 58 -12 50 3 57 6 60 26 3 18 -1 22 -23 22 -27 0 -27 0 -20 57 4 31 9
62 12 70 4 9 -4 13 -25 13 -30 0 -31 -1 -43 -75z"/>
<path d="M2928 451 c31 -6 32 -7 18 -26 -9 -11 -16 -28 -16 -37 0 -13 -9 -18
-32 -19 -31 -2 -31 -2 -5 -6 22 -4 27 -9 27 -32 0 -86 146 -78 165 8 12 55 9
94 -9 107 -11 8 -48 12 -99 11 -48 0 -68 -3 -49 -6z m106 -68 c-12 -57 -16
-63 -36 -63 -18 0 -19 4 -13 37 9 48 12 53 36 53 16 0 18 -5 13 -27z"/>
<path d="M3253 453 c9 -2 23 -2 30 0 6 3 -1 5 -18 5 -16 0 -22 -2 -12 -5z"/>
<path d="M3312 450 c-28 -12 -52 -66 -52 -119 0 -36 -3 -40 -27 -44 -25 -4
-24 -5 7 -7 79 -5 149 -5 154 1 3 3 10 27 15 52 l8 47 -32 0 c-34 0 -49 -18
-39 -45 4 -9 0 -15 -10 -15 -17 0 -21 27 -10 68 5 18 13 22 44 22 36 0 50 12
50 41 0 12 -78 11 -108 -1z"/>
<path d="M3508 453 c12 -2 32 -2 45 0 12 2 2 4 -23 4 -25 0 -35 -2 -22 -4z"/>
<path d="M3580 446 c0 -10 -13 -16 -37 -19 -37 -4 -37 -4 4 -3 40 1 41 0 47
-34 3 -19 6 -54 6 -78 0 -41 1 -43 28 -40 19 2 28 9 30 25 2 13 21 54 42 93
l38 70 -33 0 c-28 0 -35 -5 -46 -32 l-13 -33 -3 33 c-4 28 -8 32 -34 32 -19 0
-29 -5 -29 -14z"/>
<path d="M1268 423 c12 -2 30 -2 40 0 9 3 -1 5 -23 4 -22 0 -30 -2 -17 -4z"/>
<path d="M1598 423 c12 -2 32 -2 45 0 12 2 2 4 -23 4 -25 0 -35 -2 -22 -4z"/>
<path d="M2598 423 c12 -2 32 -2 45 0 12 2 2 4 -23 4 -25 0 -35 -2 -22 -4z"/>
<path d="M2878 423 c12 -2 30 -2 40 0 9 3 -1 5 -23 4 -22 0 -30 -2 -17 -4z"/>
<path d="M3218 423 c12 -2 30 -2 40 0 9 3 -1 5 -23 4 -22 0 -30 -2 -17 -4z"/>
<path d="M1258 393 c12 -2 30 -2 40 0 9 3 -1 5 -23 4 -22 0 -30 -2 -17 -4z"/>
<path d="M1598 393 c12 -2 32 -2 45 0 12 2 2 4 -23 4 -25 0 -35 -2 -22 -4z"/>
<path d="M1993 393 c9 -2 25 -2 35 0 9 3 1 5 -18 5 -19 0 -27 -2 -17 -5z"/>
<path d="M2253 393 c9 -2 25 -2 35 0 9 3 1 5 -18 5 -19 0 -27 -2 -17 -5z"/>
<path d="M2598 393 c12 -2 30 -2 40 0 9 3 -1 5 -23 4 -22 0 -30 -2 -17 -4z"/>
<path d="M2868 393 c12 -2 30 -2 40 0 9 3 -1 5 -23 4 -22 0 -30 -2 -17 -4z"/>
<path d="M3208 393 c12 -2 30 -2 40 0 9 3 -1 5 -23 4 -22 0 -30 -2 -17 -4z"/>
<path d="M3528 393 c12 -2 30 -2 40 0 9 3 -1 5 -23 4 -22 0 -30 -2 -17 -4z"/>
<path d="M1263 363 c9 -2 23 -2 30 0 6 3 -1 5 -18 5 -16 0 -22 -2 -12 -5z"/>
<path d="M1598 363 c12 -2 30 -2 40 0 9 3 -1 5 -23 4 -22 0 -30 -2 -17 -4z"/>
<path d="M2263 363 c9 -2 23 -2 30 0 6 3 -1 5 -18 5 -16 0 -22 -2 -12 -5z"/>
<path d="M2598 363 c12 -2 30 -2 40 0 9 3 -1 5 -23 4 -22 0 -30 -2 -17 -4z"/>
<path d="M3213 363 c9 -2 23 -2 30 0 6 3 -1 5 -18 5 -16 0 -22 -2 -12 -5z"/>
<path d="M3543 363 c9 -2 25 -2 35 0 9 3 1 5 -18 5 -19 0 -27 -2 -17 -5z"/>
<path d="M1598 333 c12 -2 30 -2 40 0 9 3 -1 5 -23 4 -22 0 -30 -2 -17 -4z"/>
<path d="M1978 333 c12 -2 30 -2 40 0 9 3 -1 5 -23 4 -22 0 -30 -2 -17 -4z"/>
<path d="M2593 333 c9 -2 25 -2 35 0 9 3 1 5 -18 5 -19 0 -27 -2 -17 -5z"/>
<path d="M3228 333 c7 -3 16 -2 19 1 4 3 -2 6 -13 5 -11 0 -14 -3 -6 -6z"/>
<path d="M3553 333 c9 -2 23 -2 30 0 6 3 -1 5 -18 5 -16 0 -22 -2 -12 -5z"/>
<path d="M1248 313 c12 -2 30 -2 40 0 9 3 -1 5 -23 4 -22 0 -30 -2 -17 -4z"/>
<path d="M2243 313 c9 -2 25 -2 35 0 9 3 1 5 -18 5 -19 0 -27 -2 -17 -5z"/>
<path d="M2858 313 c12 -2 30 -2 40 0 9 3 -1 5 -23 4 -22 0 -30 -2 -17 -4z"/>
<path d="M3203 313 c9 -2 25 -2 35 0 9 3 1 5 -18 5 -19 0 -27 -2 -17 -5z"/>
<path d="M1603 303 c9 -2 23 -2 30 0 6 3 -1 5 -18 5 -16 0 -22 -2 -12 -5z"/>
<path d="M3558 303 c6 -2 18 -2 25 0 6 3 1 5 -13 5 -14 0 -19 -2 -12 -5z"/>
<path d="M1273 283 c9 -2 23 -2 30 0 6 3 -1 5 -18 5 -16 0 -22 -2 -12 -5z"/>
<path d="M2883 283 c9 -2 23 -2 30 0 6 3 -1 5 -18 5 -16 0 -22 -2 -12 -5z"/>
<path d="M1988 273 c6 -2 18 -2 25 0 6 3 1 5 -13 5 -14 0 -19 -2 -12 -5z"/>
<path d="M2598 273 c6 -2 18 -2 25 0 6 3 1 5 -13 5 -14 0 -19 -2 -12 -5z"/>
<path d="M3558 273 c6 -2 18 -2 25 0 6 3 1 5 -13 5 -14 0 -19 -2 -12 -5z"/>
</g>
</svg>
