<?xml version="1.0" standalone="no"?>
<!DOCTYPE svg PUBLIC "-//W3C//DTD SVG 20010904//EN"
 "http://www.w3.org/TR/2001/REC-SVG-20010904/DTD/svg10.dtd">
<svg version="1.0" xmlns="http://www.w3.org/2000/svg"
 width="679.000000pt" height="537.000000pt" viewBox="0 0 679.000000 537.000000"
 preserveAspectRatio="xMidYMid meet">

<g transform="translate(0.000000,537.000000) scale(0.100000,-0.100000)"
fill="#000000" stroke="none">
<path d="M2090 4490 l0 -120 811 0 812 0 504 -305 c277 -168 506 -305 508
-305 3 0 5 191 5 425 l0 425 -1320 0 -1320 0 0 -120z m2408 -219 c3 -89 2 -93
-17 -88 -28 7 -291 170 -291 180 0 4 69 6 153 5 l152 -3 3 -94z"/>
<path d="M2318 3849 l-3 -424 -112 -3 -113 -3 0 -114 0 -115 598 -2 597 -3 5
-245 5 -246 525 303 c289 166 524 305 523 309 -1 3 -237 142 -525 308 l-523
303 -5 -246 -5 -246 -150 0 -150 0 -2 285 c-2 157 -3 335 -3 397 l0 111 -91
21 c-50 12 -101 24 -115 27 l-24 6 -2 -423 -3 -424 -89 -3 c-65 -2 -92 1 -97
10 -5 7 -8 137 -8 288 0 151 0 325 -1 387 l0 111 -91 21 c-50 12 -101 24 -115
27 l-24 6 -2 -423z m1389 -440 c87 -51 162 -95 166 -99 8 -7 -318 -200 -336
-200 -4 0 -7 88 -7 195 0 111 4 195 9 195 5 0 80 -41 168 -91z"/>
<path d="M2320 2666 l0 -426 -115 0 -115 0 0 -120 0 -120 1320 0 1320 0 0 430
0 429 -307 -186 c-170 -102 -400 -242 -512 -310 l-205 -123 -360 2 -361 3 -2
200 c-1 110 -2 288 -3 396 l0 195 -112 25 -113 25 -5 -420 -5 -421 -89 -3
c-65 -2 -92 1 -98 10 -5 7 -8 99 -7 203 0 105 0 278 0 385 l-1 196 -101 23
c-56 12 -108 25 -115 28 -12 4 -14 -66 -14 -421z m2180 -331 l0 -95 -162 0
c-120 0 -159 3 -151 11 19 19 287 179 301 179 9 0 12 -26 12 -95z"/>
<path d="M2865 1611 c-92 -42 -105 -81 -105 -318 0 -217 10 -253 77 -297 73
-47 149 -43 214 11 61 52 64 67 62 290 -3 215 -6 235 -55 280 -30 28 -89 53
-125 53 -15 0 -46 -9 -68 -19z m105 -86 c16 -8 31 -23 34 -32 3 -10 6 -100 8
-200 3 -180 3 -181 -21 -207 -33 -36 -82 -35 -110 0 -20 25 -21 39 -21 213 1
193 3 205 45 229 26 15 31 15 65 -3z"/>
<path d="M4105 1611 c-50 -22 -91 -69 -105 -119 -13 -48 -13 -346 1 -395 23
-83 118 -147 196 -132 53 10 89 33 121 79 l27 39 0 212 0 211 -27 41 c-29 45
-96 83 -144 83 -16 0 -47 -9 -69 -19z m123 -107 c21 -24 22 -32 22 -208 0
-170 -1 -185 -21 -210 -13 -17 -30 -26 -49 -26 -80 0 -90 27 -90 237 0 180 6
208 50 230 31 16 59 8 88 -23z"/>
<path d="M4915 1619 c-41 -12 -83 -53 -106 -103 -16 -35 -19 -67 -19 -221 0
-195 9 -234 61 -282 73 -67 164 -67 234 0 57 56 65 89 65 282 0 184 -8 221
-57 276 -48 53 -108 69 -178 48z m113 -115 c21 -24 22 -32 22 -208 0 -170 -1
-185 -21 -210 -29 -37 -89 -37 -118 0 -20 25 -21 40 -21 208 0 151 3 185 16
204 33 47 82 49 122 6z"/>
<path d="M5335 1611 c-46 -21 -79 -54 -94 -94 -17 -43 -14 -410 3 -450 16 -40
64 -81 111 -97 75 -25 167 17 204 92 17 36 21 63 21 142 l0 97 -82 -3 -83 -3
-3 -47 -3 -48 35 0 c36 0 36 0 36 -44 0 -55 -30 -96 -70 -96 -80 0 -90 27 -90
235 0 130 3 172 15 196 41 78 145 43 145 -48 0 -33 0 -33 50 -33 l50 0 0 38
c0 43 -28 109 -56 134 -27 24 -88 48 -121 48 -15 0 -46 -9 -68 -19z"/>
<path d="M880 1295 l0 -325 150 0 150 0 0 50 0 49 -97 3 -98 3 -3 78 c-2 50 1
84 9 93 8 10 36 14 100 14 l89 0 0 45 0 44 -97 3 -98 3 -3 73 c-2 46 2 79 9
88 8 10 36 14 100 14 l89 0 0 45 0 45 -150 0 -150 0 0 -325z"/>
<path d="M1287 1409 c-4 -117 -7 -263 -7 -326 l0 -113 93 0 c109 0 155 11 198
47 60 51 69 87 69 282 0 203 -11 241 -83 289 -37 24 -51 27 -152 31 l-112 3
-6 -213z m230 86 c22 -25 23 -34 23 -199 0 -171 0 -173 -25 -200 -22 -24 -31
-27 -78 -24 l-52 3 -3 219 c-2 169 1 221 10 228 7 4 33 6 58 4 33 -3 51 -11
67 -31z"/>
<path d="M1796 1603 c-3 -10 -28 -146 -55 -303 -28 -157 -53 -295 -56 -307 -5
-22 -2 -23 45 -23 48 0 50 1 50 28 0 47 11 53 86 50 l69 -3 3 -37 3 -38 50 0
c50 0 51 0 45 28 -8 39 -106 606 -106 615 0 4 -29 7 -64 7 -53 0 -66 -3 -70
-17z m79 -185 c8 -42 35 -238 35 -263 0 -23 -3 -25 -50 -25 -60 0 -58 -13 -29
173 21 131 33 163 44 115z"/>
<path d="M2120 1295 l0 -325 50 0 50 0 0 245 c0 135 4 245 9 245 5 0 28 -29
51 -65 23 -36 43 -65 45 -65 1 0 22 28 45 63 24 34 45 64 47 67 13 15 24 -35
22 -100 -1 -41 -1 -146 0 -232 l1 -158 45 0 45 0 0 325 0 325 -55 0 -54 0 -41
-59 c-22 -33 -44 -62 -49 -65 -5 -4 -29 22 -53 56 l-44 63 -57 3 -57 3 0 -326z"/>
<path d="M3202 1298 l3 -323 47 -3 48 -3 2 178 3 178 82 -175 83 -175 40 -3
40 -3 0 325 0 326 -49 0 -50 0 6 -185 c4 -116 2 -185 -4 -185 -5 0 -44 83 -88
185 l-78 185 -44 0 -43 0 2 -322z"/>
<path d="M3610 1575 c0 -44 1 -45 33 -47 17 0 40 0 51 1 44 4 46 -6 46 -290
l0 -269 51 0 50 0 -2 269 c-1 147 1 273 5 280 4 6 32 11 62 11 l54 0 0 45 0
45 -175 0 -175 0 0 -45z"/>
<path d="M4440 1295 l0 -325 151 0 150 0 -3 48 -3 47 -95 3 c-60 2 -97 7 -103
15 -4 7 -5 130 -2 275 l7 262 -51 0 -51 0 0 -325z"/>
<path d="M5620 1612 c0 -4 27 -91 60 -192 l60 -185 0 -132 0 -133 45 0 45 0 0
129 c0 125 2 134 41 253 22 68 51 156 64 196 l23 72 -46 0 -47 0 -35 -127
c-19 -71 -39 -127 -45 -126 -5 1 -25 58 -44 127 l-34 126 -44 0 c-23 0 -43 -3
-43 -8z"/>
</g>
</svg>
