<?xml version="1.0" standalone="no"?>
<!DOCTYPE svg PUBLIC "-//W3C//DTD SVG 20010904//EN"
 "http://www.w3.org/TR/2001/REC-SVG-20010904/DTD/svg10.dtd">
<svg version="1.0" xmlns="http://www.w3.org/2000/svg"
 width="684.000000pt" height="539.000000pt" viewBox="0 0 684.000000 539.000000"
 preserveAspectRatio="xMidYMid meet">

<g transform="translate(0.000000,539.000000) scale(0.100000,-0.100000)"
fill="#000000" stroke="none">
<path d="M0 5380 c0 -7 1147 -10 3420 -10 2273 0 3420 3 3420 10 0 7 -1147 10
-3420 10 -2273 0 -3420 -3 -3420 -10z"/>
<path d="M3133 4450 c-33 -19 -53 -48 -53 -73 0 -25 49 -7 65 24 20 37 51 55
71 38 48 -40 -30 -169 -137 -224 -31 -17 -32 -18 -14 -31 31 -23 50 -16 104
37 59 58 81 103 81 165 0 76 -51 105 -117 64z"/>
<path d="M3775 4445 c-39 -38 -35 -98 11 -166 20 -30 54 -69 74 -87 34 -29 41
-31 64 -21 33 16 33 25 -2 43 -55 28 -131 106 -142 144 -13 49 -13 58 6 76 20
20 48 7 69 -33 12 -24 61 -48 73 -36 9 9 -33 68 -61 85 -42 26 -63 25 -92 -5z"/>
<path d="M2773 4333 c-50 -17 -53 -31 -20 -85 92 -151 472 -271 806 -255 255
13 526 106 667 229 30 27 64 75 64 92 0 4 -95 36 -107 36 -1 0 -9 -15 -16 -33
-21 -50 -110 -123 -211 -172 -275 -136 -650 -133 -918 7 -91 47 -175 118 -195
165 -15 37 -13 37 -70 16z"/>
<path d="M4086 4084 c-15 -9 -24 -19 -20 -24 5 -4 86 -47 179 -95 201 -104
277 -154 322 -213 63 -83 80 -205 42 -309 -28 -74 -115 -166 -174 -182 -170
-47 -327 65 -283 202 14 45 64 87 103 87 31 0 75 -37 91 -75 10 -26 21 -34 50
-39 20 -4 37 -6 39 -4 9 11 -27 104 -50 128 -72 75 -194 58 -242 -33 -43 -83
-33 -161 28 -231 73 -82 183 -95 306 -36 85 40 137 91 175 168 30 60 33 75 33
157 0 126 -22 182 -100 261 -52 51 -89 74 -252 157 -105 53 -197 97 -205 97
-7 -1 -26 -8 -42 -16z"/>
<path d="M2664 4001 c-220 -110 -278 -157 -319 -258 -23 -56 -28 -84 -29 -158
-1 -82 2 -96 32 -157 38 -79 90 -128 182 -171 54 -26 77 -31 135 -31 130 0
205 67 213 189 5 75 -14 124 -64 161 -92 71 -226 11 -241 -107 -6 -41 -5 -42
18 -36 13 4 29 7 36 7 6 0 21 20 32 43 36 74 102 88 156 34 59 -59 56 -159 -6
-212 -76 -63 -217 -72 -293 -18 -181 127 -194 384 -28 519 57 46 94 68 311
182 l134 70 -31 16 c-17 9 -38 16 -45 16 -8 0 -95 -40 -193 -89z"/>
<path d="M2868 3802 c87 -104 148 -282 159 -462 l6 -96 -57 -51 -56 -52 55
-48 c54 -47 55 -49 55 -103 0 -136 -73 -367 -150 -479 l-49 -71 670 0 670 0
-40 53 c-55 73 -107 186 -134 293 l-23 91 -45 -55 c-89 -113 -178 -157 -334
-168 l-95 -7 0 198 0 197 37 -7 c60 -11 140 -44 193 -80 l50 -34 0 220 0 219
-57 -37 c-57 -36 -171 -82 -205 -83 -17 0 -18 16 -18 200 l0 200 58 0 c87 0
189 -26 249 -62 31 -19 79 -63 111 -101 l56 -67 27 97 c31 117 73 211 120 273
19 25 38 51 43 58 6 9 -130 12 -664 12 l-672 0 40 -48z m437 -127 c31 -30 33
-78 5 -102 -19 -17 -20 -30 -20 -430 0 -400 1 -414 20 -433 11 -11 20 -33 20
-50 0 -65 -79 -94 -119 -44 -26 33 -26 54 -1 87 19 24 20 40 20 436 0 403 0
412 -21 440 -25 35 -19 83 14 106 31 21 54 19 82 -10z"/>
<path d="M2292 3183 c-7 -3 -17 -13 -22 -24 -26 -47 43 -82 74 -37 24 34 -10
74 -52 61z"/>
<path d="M4668 3170 c-20 -15 -21 -21 -10 -44 22 -49 91 -25 78 28 -8 31 -40
39 -68 16z"/>
<path d="M2595 3054 c-191 -48 -311 -229 -277 -418 32 -174 79 -220 383 -372
154 -77 172 -81 213 -51 17 13 4 21 -150 102 -250 130 -316 180 -366 275 -34
67 -33 193 3 271 52 111 137 169 249 169 77 0 134 -23 173 -69 50 -60 48 -133
-6 -188 -25 -27 -39 -33 -73 -33 -34 0 -47 5 -63 27 -12 14 -24 36 -27 49 -4
15 -17 25 -45 32 -38 10 -39 9 -39 -17 1 -44 36 -109 72 -131 44 -26 122 -27
165 0 46 28 73 86 73 157 0 72 -28 125 -87 166 -34 24 -53 30 -110 33 -37 1
-77 1 -88 -2z"/>
<path d="M4252 3049 c-78 -24 -150 -143 -135 -222 18 -96 72 -147 155 -147 88
0 143 51 161 148 6 31 5 33 -16 26 -53 -16 -67 -24 -67 -38 0 -8 -12 -28 -26
-45 -72 -86 -205 13 -174 130 22 82 96 129 202 129 274 -1 380 -385 155 -558
-29 -23 -131 -82 -227 -132 -96 -51 -186 -99 -199 -107 l-25 -16 37 -18 36
-19 154 73 c328 157 399 236 401 442 1 90 -2 106 -27 157 -58 119 -176 199
-302 204 -38 2 -85 -1 -103 -7z"/>
<path d="M3275 2275 c-239 -38 -444 -128 -515 -226 -44 -61 -41 -85 13 -100
23 -6 45 -13 49 -15 4 -3 14 10 21 28 19 46 112 127 193 170 313 164 777 134
1041 -66 41 -31 69 -61 83 -91 12 -25 23 -45 24 -45 5 0 101 33 104 36 9 6
-31 64 -66 96 -73 66 -227 143 -362 181 -163 47 -409 60 -585 32z"/>
<path d="M3078 2109 c-10 -5 -18 -13 -18 -17 0 -4 27 -27 61 -52 85 -62 129
-143 100 -188 -14 -23 -53 -9 -70 25 -14 27 -57 50 -70 37 -9 -8 23 -64 44
-78 45 -29 72 -30 99 -2 54 53 24 160 -66 241 -55 49 -55 49 -80 34z"/>
<path d="M3838 2068 c-91 -89 -115 -182 -62 -234 27 -28 56 -27 102 2 21 14
55 74 47 82 -11 12 -58 -16 -75 -45 -15 -25 -26 -34 -42 -31 -83 12 -11 160
109 225 18 9 33 20 33 24 0 5 -45 29 -55 29 -2 0 -28 -24 -57 -52z"/>
<path d="M524 1594 c24 -23 24 -385 0 -408 -14 -15 -2 -16 134 -16 147 0 150
0 156 23 11 43 6 47 -31 21 -31 -21 -47 -24 -98 -22 l-60 3 -3 65 c-5 102 -1
110 59 110 28 0 59 -5 70 -10 17 -10 19 -7 19 20 0 28 -2 30 -20 20 -11 -6
-44 -10 -73 -8 l-52 3 0 95 0 95 63 3 c46 2 71 -2 88 -13 23 -15 24 -15 24 10
l0 25 -146 0 c-132 0 -144 -1 -130 -16z"/>
<path d="M924 1594 c24 -24 24 -379 -1 -406 -15 -17 -12 -18 109 -18 80 0 142
5 174 15 192 57 192 353 0 410 -32 10 -94 15 -174 15 -112 0 -122 -1 -108 -16z
m257 -27 c103 -68 107 -278 6 -351 -22 -16 -44 -21 -95 -21 l-67 0 -3 185 c-1
101 0 190 2 197 9 23 118 17 157 -10z"/>
<path d="M2765 1597 c-100 -33 -149 -101 -149 -206 -1 -80 27 -137 85 -176 94
-62 248 -56 330 12 84 71 93 229 16 311 -55 60 -193 88 -282 59z m165 -30 c57
-38 75 -80 75 -177 0 -93 -16 -135 -66 -173 -39 -28 -106 -33 -149 -9 -112 62
-112 303 0 363 47 26 100 24 140 -4z"/>
<path d="M3498 1598 c12 -12 18 -278 6 -278 -3 0 -74 63 -157 140 l-152 141
-3 -202 c-1 -129 -6 -207 -13 -216 -9 -11 1 -13 55 -13 l67 0 -15 22 c-20 28
-24 268 -5 268 6 0 66 -50 133 -112 66 -62 135 -125 151 -140 l31 -28 -4 191
c-3 161 -1 194 13 215 l15 24 -67 0 c-52 0 -64 -3 -55 -12z"/>
<path d="M3680 1589 c0 -17 4 -19 18 -13 9 5 44 8 77 9 l60 0 3 -184 c2 -152
0 -188 -13 -207 l-15 -24 71 0 c70 0 72 1 55 19 -14 16 -16 42 -14 207 l3 189
52 3 c29 2 62 -2 73 -8 17 -9 20 -8 20 10 0 19 -6 20 -195 20 -192 0 -195 0
-195 -21z"/>
<path d="M4260 1591 c-172 -61 -190 -305 -28 -389 101 -52 244 -36 317 37 69
69 80 195 24 275 -59 84 -198 118 -313 77z m188 -28 c45 -34 67 -89 66 -173 0
-122 -46 -188 -137 -197 -98 -10 -160 66 -161 196 -1 131 60 207 157 198 27
-2 60 -13 75 -24z"/>
<path d="M4693 1592 c15 -16 17 -45 17 -202 0 -157 -2 -186 -17 -202 -16 -17
-11 -18 135 -18 115 0 152 3 152 13 0 6 3 22 6 35 l7 23 -39 -26 c-32 -22 -47
-25 -99 -23 l-60 3 -3 192 c-2 164 0 193 14 207 14 15 9 16 -57 16 -69 0 -71
-1 -56 -18z"/>
<path d="M5215 1601 c-104 -26 -165 -104 -165 -211 0 -156 136 -247 312 -211
219 46 236 353 24 416 -52 16 -121 18 -171 6z m145 -30 c53 -28 80 -88 80
-179 0 -125 -46 -191 -139 -200 -36 -3 -53 1 -80 20 -54 36 -74 79 -78 167 -4
65 -1 83 19 121 43 83 123 112 198 71z"/>
<path d="M5751 1596 c-51 -17 -107 -67 -127 -113 -19 -43 -18 -135 1 -181 20
-47 50 -79 100 -105 80 -43 249 -23 303 36 15 16 21 38 24 85 l3 62 -50 0 -50
0 0 -72 c0 -71 -1 -73 -34 -95 -69 -47 -156 -18 -198 67 -46 90 -22 232 48
283 59 43 169 30 221 -26 l28 -29 0 31 c0 27 -5 34 -37 48 -53 22 -178 26
-232 9z"/>
<path d="M6134 1588 c14 -13 52 -68 85 -123 l61 -99 0 -80 c0 -60 -4 -84 -17
-98 -15 -17 -13 -18 56 -18 66 0 71 1 57 16 -12 12 -16 36 -16 101 l0 85 61
96 c34 53 73 107 86 120 l24 22 -45 0 c-39 0 -44 -2 -39 -19 5 -19 -49 -127
-86 -172 -18 -22 -18 -22 -65 65 -29 53 -46 95 -43 107 5 17 -1 19 -69 19
l-75 0 25 -22z"/>
<path d="M1552 1533 c-16 -37 -56 -126 -88 -198 -32 -71 -66 -137 -76 -147
-17 -17 -16 -18 27 -18 41 0 44 2 34 18 -9 14 -7 27 10 60 l21 42 78 0 78 0
17 -35 c20 -42 22 -71 5 -78 -7 -3 25 -6 71 -6 80 -1 82 0 63 17 -11 9 -59
103 -107 207 -48 105 -90 194 -94 198 -4 4 -22 -23 -39 -60z m41 -131 c15 -37
27 -73 27 -80 0 -14 -116 -17 -124 -3 -3 5 5 33 18 62 13 30 26 62 29 72 11
31 23 18 50 -51z"/>
<path d="M1920 1583 c0 -5 -11 -93 -25 -198 -19 -146 -29 -193 -42 -202 -14
-11 -11 -13 26 -13 34 0 41 3 33 13 -14 16 8 229 23 234 6 2 32 -34 59 -79 27
-46 60 -100 74 -122 l24 -38 69 118 c38 66 75 119 81 119 17 0 40 -214 26
-232 -8 -10 5 -13 61 -13 68 0 70 1 53 18 -14 14 -23 60 -41 202 -13 102 -26
188 -30 192 -4 4 -45 -56 -91 -134 -47 -78 -90 -143 -96 -145 -6 -2 -51 61
-100 141 -80 130 -104 163 -104 139z"/>
</g>
</svg>
